<svg xmlns="http://www.w3.org/2000/svg" viewBox="0 0 45 45">
  <g fill="#000" stroke="#000" stroke-width="1.5" stroke-linejoin="round" stroke-linecap="round">
    <path d="M22 10c1.5-1 3.5-1 5 0 3 2 4 4.5 4 7.5 0 2-1.5 4-1.5 4l-1 2c-1.5 2.5-2.5 4.5-2.5 7s.5 4.5 2.5 4.5c2.5 0 2.5 2 2.5 2h-11c0 0 0-2 2-2 1.5 0 1.5-2 1.5-3.5s-1-4-2.5-6l-1.5-2.5c0 0-1-1.5-1-3 0-3 1.5-5 4-6.5z"/>
    <path d="M13.5 22.5c-1 3.5-1 11.5 4 13.5M13 15.5s-1.5-1-3.5-1c-1.5 0-3 2-3 2s-2 1.5-2 4 2 2 2 2h6M13 15.5s-1.5-1-3.5-1-3 2-3 2-2 1.5-2 4 2 2 2 2h6"/>
  </g>
</svg>