<svg xmlns="http://www.w3.org/2000/svg" viewBox="0 0 45 45">
  <g fill="none" stroke="#000" stroke-width="1.5" stroke-linejoin="round" stroke-linecap="round">
    <path d="M9 36c3.39-.97 10.11.43 13.5-2 3.39 2.43 10.11 1.03 13.5 2 0 0 1.65 1.5-3 2-4.65-.5-11.65-.5-16.5 0-4.65-.5-3-2-3-2zM15 32c2.5 2.5 12.5 2.5 15 0 .5-1.5 0-2 0-2 0-2.5-2.5-4-2.5-4 5.5-1.5 6-11.5-5-15.5-11 4-10.5 14-5 15.5 0 0-2.5 1.5-2.5 4 0 0-.5.5 0 2z" fill="#fff"/>
    <path d="M25 8a2.5 2.5 0 1 1-5 0 2.5 2.5 0 1 1 5 0z"/>
    <path d="M17.5 26h10M15 32a17.5 17.5 0 0 1 15 0" stroke-linejoin="miter"/>
    <path d="M22.5 18l-1.5-1.5M22.5 18l1.5-1.5M22.5 18l-1.5 1.5M22.5 18l1.5 1.5" stroke="#000"/>
  </g>
</svg>