<svg xmlns="http://www.w3.org/2000/svg" viewBox="0 0 45 45">
  <g fill="#fff" stroke="#000" stroke-width="1.5" stroke-linejoin="round" stroke-linecap="round">
    <path d="M22,10 C32.5,10 31.5,25 22.5,25 C15.5,25 10,21 10,14 C10,10.5 13,8.5 15,8.5 C17.5,8.5 20,10 22,10 M24.5,24 C24.5,24 24.5,22 26,22 C28,22 28.5,24 28.5,24 C28.5,24 30.5,25.5 30.5,22.5 C30.5,19.5 29.5,18 29.5,18 C29.5,18 28.5,17.5 28.5,16 C28.5,14.5 29,13.5 29,13.5 C29,13.5 30,12 29.5,11.5 C29,11 28,12 28,12 C28,12 27,13 26,14 C25,15 24.5,14.5 24,14 C23.5,13.5 22,12 22,10"/>
    <path d="M9.5 25.5 A 0.5 0.5 0 1 1 8.5,25.5 A 0.5 0.5 0 1 1 9.5 25.5 z"/>
    <path d="M15 15.5 C 14 17 14 18 15 19 C 15.5 19.5 16 19.5 16 19 C 16 18.5 15.5 18 15 17 C 14.5 16.5 14 16 14 15.5" fill="#000"/>
    <path d="M 24.5,24 C 24.5,24 24.5,22 26,22" fill="none"/>
    <path d="M 15,15.5 C 14,17 14,18 15,19" fill="none"/>
  </g>
</svg>