<svg xmlns="http://www.w3.org/2000/svg" viewBox="0 0 45 45">
  <g fill="#fff" stroke="#000" stroke-width="1.5" stroke-linejoin="round" stroke-linecap="round">
    <path d="M8 12a10.5 10.5 0 1 1 21 0 10.5 10.5 0 1 1-21 0z"/>
    <path d="M8 12s2 11.5 10.5 11.5S29 12 29 12"/>
    <path d="M18.5 23.5S16 28 10.5 28c-3 0-4.5-2.5-4.5-2.5S3.5 23.5 8 23.5c4 0 5-3 5-3s2-1.5 2.5-3c.5-1.5-2-1-2-1"/>
    <path d="M26.5 23.5S29 28 34.5 28c3 0 4.5-2.5 4.5-2.5S41.5 23.5 37 23.5c-4 0-5-3-5-3s-2-1.5-2.5-3c-.5-1.5 2-1 2-1"/>
    <path d="M11 28s-1.5 4.5 7.5 4.5 7.5-4.5 7.5-4.5"/>
    <path d="M18.5 32.5s-2.5 4.5-8 4.5M26.5 32.5s2.5 4.5 8 4.5"/>
  </g>
</svg>